<svg xmlns="http://www.w3.org/2000/svg" width="226.397" height="41.904" viewBox="0 0 59.901 11.087"><g fill="#fff"><path d="M5.292 3.7q.35.2.402.52.053.318-.106.688-.148.36-.445.74-.296.38-.646.688-.042.042-.116.106-.074.053-.148.116-.074.053-.148.106-.064.042-.095.074-.508.35-1.027.603-.52.243-1.1.455-.265.053-.466.02-.2-.032-.34-.106-.127-.074-.2-.17-.064-.095-.053-.17.254.053.38.064.138 0 .212-.01.074-.02.106-.042.032-.032.085-.053.01-.243.01-.434 0-.2 0-.35.01-.16.01-.307.01-.148.02-.307-.01-.445-.032-.794-.01-.35-.01-.582-.286.116-.423.2-.127.064-.2.095-.063.032-.085.032-.01 0-.053-.02-.042-.02-.053-.074-.01-.063-.01-.127 0-.074.01-.17.074-.053.138-.085.064-.042.138-.085.085-.042.2-.095.116-.064.296-.17-.01-.37-.02-.656 0-.286-.02-.55-.01-.275-.042-.572-.02-.296-.053-.677 0-.042-.148.02-.148.053-.34.17-.2.106-.38.254-.18.148-.265.296Q.2 2.416.17 2.5q-.042.085-.064.148-.032.053-.042.063-.02 0-.063-.074.02-.275.16-.508.138-.243.34-.423.2-.2.434-.318.243-.138.466-.222.01-.116 0-.18Q1.4.923 1.4.87q.053-.01.16-.106.106-.106.148-.106.02.063.032.127.01.053.02.095.01.053.02.095.275-.16.624-.2.35-.053.667-.01.328.032.572.148.254.106.34.254.212.286.148.646-.064.35-.265.688-.2.34-.466.624-.265.286-.455.444.328-.063.667-.095.34-.032.646-.01.317.01.582.063.265.053.444.16zM1.82 1.435q-.042.667.01 1.238.053.572.074 1.185.275-.116.56-.307.286-.2.54-.455.254-.265.445-.593.2-.328.275-.73.032-.2-.138-.34-.16-.148-.434-.2-.275-.053-.635-.01-.35.042-.7.2zM2 7.214q.56-.16 1.164-.508.603-.35 1.1-.762.497-.423.794-.857.296-.445.243-.794-.042-.233-.444-.317-.392-.095-.93-.063-.54.02-1.1.148-.55.127-.9.318 0 .148 0 .52 0 .36.01.794.01.434.032.857.02.423.053.667zm4.564-2.7q.032-.01.18-.053.148-.053.243-.02.307-.01.466.16.17.17.032.656-.2.54-.54.9-.328.36-.783.688.106.275.318.307.212.032.444-.064.233-.106.455-.275.222-.17.36-.296.222-.2.35-.317.138-.138.286-.328.032-.02.032.01.01.02 0 .074-.01.053-.032.148-.032.074-.063.138-.032.053-.095.127-.053.064-.148.16-.095.095-.233.254-.16.148-.307.296-.148.138-.318.243-.16.106-.36.148-.2.042-.444 0-.212-.074-.34-.16-.127-.085-.2-.17-.064-.095-.095-.17-.032-.074-.042-.127-.053-.212-.042-.572.01-.36.212-.93.138-.296.296-.497.16-.212.37-.328zm-.466 1.873q.138-.074.318-.2.2-.138.35-.307.17-.18.286-.392.127-.212.138-.445.032-.16-.01-.222-.02-.032-.042-.032-.18-.085-.36.053-.18.138-.328.392-.148.254-.254.572-.095.307-.095.582zm2.657-2.106q0 .296-.01.593 0 .296-.01.572 0 .275-.01.52 0 .243-.01.434 0-.042.042-.2.053-.17.138-.38.085-.212.18-.444.106-.243.222-.423.116-.2.233-.296.127-.106.233-.064.233.106.328.307.095.2.138.466.042.254.085.572.042.317.2.667.064.16.18.233.127.074.233.106.116.032.18.042.074 0 .053.032-.265.2-.455.138-.2-.064-.328-.275-.127-.222-.212-.52-.085-.307-.16-.582-.063-.286-.116-.476-.053-.2-.116-.2-.095.01-.212.18-.106.17-.222.423-.116.254-.222.56-.106.296-.2.56-.085.265-.138.455-.053.2-.064.233-.16 0-.2.01-.032.01-.116-.106.053-.93.032-1.757-.01-.836-.042-1.45 0-.095.042-.095.053 0 .106.042.063.042.127.085.063.042.106.042zm2.547.265q.063-.18.17-.254.106-.085.212-.148.042.095.085.307.042.212.074.466.042.254.064.508.032.254.063.434.02.106.032.233.02.127.042.275.063-.032.16-.116.095-.085.222-.17.127-.085.275-.148.16-.064.35-.053.01.01.042.032.032.01.053.032.02.02.01.042-.01.02-.074.032-.127.02-.307.148-.18.127-.34.286-.16.16-.275.328-.106.16-.106.265.01-.042.02-.074.02-.063.02.01-.01.402.01.857.032.455 0 1.143-.032.55-.085.857-.042.307-.116.476-.063.18-.148.275-.085.106-.2.243-.085.085-.254.17-.16.085-.434.085-.54 0-.74-.815-.032-.34 0-.624.032-.275.106-.508.074-.233.17-.423.085-.2.148-.36.095-.17.2-.34.095-.17.233-.36.127-.18.296-.402.17-.222.392-.497-.02-.148-.032-.286-.02-.116-.032-.233 0-.116-.01-.18-.032-.2-.074-.413-.032-.233-.074-.445-.042-.222-.085-.392-.032-.18-.063-.265zm-.847 4.784q-.063.466.01.815.063.35.275.497.085.042.222.053.127.02.233-.01.275-.127.392-.497.127-.37.17-.857.042-.476.02-1.005-.01-.53-.01-.995-.01-.106-.02-.095-.01 0-.063.053-.2.212-.402.466-.2.265-.36.54-.17.275-.286.54-.127.275-.18.497zm.963-6.392q.095-.01.106.116.01.116-.032.18-.095.085-.127.138-.02.053-.116.064-.053-.01-.095 0-.042 0-.063-.148.032-.085.106-.18.074-.106.222-.17z"/><path d="M14.956 4.4q-.01.064-.053.265-.032.2-.074.476-.042.265-.074.56-.032.296-.042.56 0 .265.032.455.042.18.127.222.243.116.497-.074.254-.2.593-.603.032 0 0 .085-.02.085-.085.19-.053.095-.116.2-.053.095-.085.127-.085.106-.243.243-.16.127-.34.212-.18.074-.35.063-.16-.01-.265-.19-.053-.127-.064-.307-.01-.19 0-.38.01-.19.032-.35.02-.16.032-.233-.222.413-.508.783-.286.37-.56.582-.275.212-.508.222-.233.02-.36-.265-.074-.275 0-.614.074-.35.222-.624.222-.38.466-.698.243-.317.52-.54.275-.222.572-.318.307-.106.635-.053zm-2 2.688q.106.02.34-.16.233-.18.487-.497.254-.328.455-.75.212-.434.275-.9-.042 0-.127 0-.074 0-.18.064-.402.265-.688.624-.286.35-.445.688-.16.328-.19.593-.032.265.074.35z"/><path d="M15.9 3.943q0-.095.053-.106.053-.02.106 0 .064.02.116.074.063.042.085.064.02.275-.02.75-.042.476-.042 1.185.042-.17.127-.402.085-.233.2-.466.116-.243.243-.444.138-.212.265-.328.127-.127.243-.127.116 0 .212.18.02.053.032.222.02.16.02.392.01.233.02.52.01.286.032.582.095-.233.212-.508.127-.286.265-.508.138-.233.296-.36.16-.127.34-.053.085.032.116.2.032.16.053.38.02.222.042.476.032.243.106.445.074.2.212.328.138.116.37.085.127 0 .18.01.063 0 .085.01.032.01.02.032 0 .02 0 .063-.392.2-.646.138-.243-.074-.392-.296-.138-.233-.2-.55-.053-.328-.074-.646-.02-.138-.095-.116-.063.02-.17.16-.095.138-.212.35-.116.2-.222.434-.106.233-.2.455-.074.212-.116.35-.053.095-.17.053-.116-.042-.148-.16-.042-.17-.053-.413 0-.254 0-.508.01-.254.02-.487.01-.243 0-.413-.01-.17-.042-.233-.032-.064-.116.032-.18.275-.34.624-.148.35-.265.73-.116.37-.2.75-.074.37-.095.677-.18.042-.254-.053-.074-.085-.127-.18.02-.138.032-.53.02-.402.032-.9.02-.508.032-1.037.02-.53.032-.92zm4.454-1.1q.106-.02.127.127.02.148-.042.222-.116.095-.148.17-.032.064-.148.085-.064-.01-.116 0-.042 0-.074-.18.042-.116.127-.233.095-.116.275-.2zm.032 1.376q.053.508.074 1.122.02.603.074 1.27.042.34.085.53.042.2.064.36-.17.032-.265 0-.095-.042-.18-.095-.02-.17-.053-.56-.02-.392-.053-.847-.02-.466-.053-.9-.02-.434-.042-.688.042-.02.064-.064.032-.042.063-.074.032-.032.085-.053.053-.02.138 0zm1.424.053q0 .296-.01.593 0 .296-.01.572 0 .275-.01.52 0 .243-.01.434 0-.042.042-.2.053-.17.138-.38.085-.212.18-.444.106-.243.222-.423.116-.2.233-.296.127-.106.233-.064.233.106.328.307.095.2.138.466.042.254.085.572.042.317.2.667.064.16.18.233.127.074.233.106.116.032.18.042.074 0 .053.032-.265.2-.455.138-.2-.064-.328-.275-.127-.222-.212-.52-.085-.307-.16-.582-.064-.286-.116-.476-.053-.2-.116-.2-.095.01-.212.18-.106.17-.222.423-.116.254-.222.56-.106.296-.2.56-.085.265-.138.455-.053.2-.063.233-.16 0-.2.01-.032.01-.116-.106.053-.93.032-1.757-.01-.836-.042-1.45 0-.095.042-.095.053 0 .106.042.064.042.127.085.063.042.106.042zM30.675.27q-.254.148-.74.328-.476.18-1.037.36-.55.18-1.1.37-.56.18-.974.35.02.243.032.423.01.17.02.38.02.2.053.508.042.296.116.804.413-.18.667-.275.254-.106.53-.2.275-.085.646-.2.38-.106 1.027-.296.053.01.127.074.074.053.116.127.053.074.053.148 0 .074-.074.116-.444.053-.878.17-.423.106-.804.254-.38.138-.7.286-.328.148-.582.265.02.497.106.963.095.466.243.847.16.37.36.614.212.243.466.286.116.02.328.042.212.01.497-.074.286-.085.646-.307.36-.233.794-.7.286-.254.413-.286.127-.032.032.095-.286.307-.53.582-.233.265-.487.487-.254.212-.55.37-.296.16-.688.222-.54.116-.9-.053-.36-.18-.593-.572-.222-.402-.36-.995-.138-.593-.243-1.312-.18.02-.296.074-.116.042-.307.17-.085-.01-.063-.085.02-.085.106-.2.095-.116.222-.233.138-.127.265-.212-.063-.434-.127-.9-.053-.476-.106-.9-.053-.434-.085-.773-.02-.35-.02-.53.063-.032.095-.042.032-.02.063-.032.042-.01.095-.01.053-.01.17-.02.02.053.02.148.01.095.01.17.54-.138.974-.265.434-.127.847-.243.413-.127.836-.243.423-.127.93-.254.085-.02.16 0 .085.01.138.053.053.032.074.064.02.032-.01.042z"/><path d="M34.11 1.943q-.032.19-.074.402-.042.212-.095.402-.042.19-.074.328-.032.138-.042.17-.064.18-.17.466-.106.286-.254.603-.138.307-.317.624-.18.307-.37.53 0 .16.032.54.042.37.095.804.053.434.095.847.053.423.063.656-.053.053-.095-.02-.042-.074-.127-.254-.064-.275-.106-.508-.032-.233-.064-.466-.032-.243-.074-.508-.032-.265-.106-.603-.2.254-.487.582-.275.317-.582.572-.296.243-.593.35-.286.095-.497-.095-.127-.17-.106-.392.01-.233.127-.466.106-.243.275-.476.18-.233.36-.434.18-.2.34-.35.16-.148.233-.212.148-.095.243-.148.106-.063.18-.095.085-.042.17-.053.085-.02.212-.01-.02-.243-.032-.582 0-.34 0-.677.01-.35.02-.646.02-.296.053-.455.02-.233.095-.487.085-.254.2-.487.127-.243.275-.423.148-.19.317-.265.18-.085.36-.042.19.042.37.265.148.18.148.455 0 .265 0 .56zM32.714 4.77q.19-.212.318-.444.127-.243.286-.572.138-.286.243-.73.116-.444.16-.868.042-.434 0-.75-.042-.318-.212-.34-.148-.02-.275.116-.127.127-.233.328-.106.19-.18.413-.074.222-.106.392-.042.212-.063.38-.01.17-.02.36 0 .18-.01.402-.01.212-.042.53 0 .16.01.317.02.16.042.275.032.106.053.17.02.053.032.02zm-1.535.984q-.286.296-.423.55-.127.243-.212.455 0 .032 0 .106 0 .064.01.127.02.064.064.116.053.042.16.02.106-.042.17-.085.074-.042.127-.085.064-.053.127-.106.074-.053.18-.138.148-.16.36-.36.222-.2.38-.423.17-.222.222-.455.053-.233-.138-.455-.074 0-.16.02-.074.02-.2.106-.116.074-.286.222-.16.138-.392.38z"/><path d="M34.2 7.108q.032 0 .095-.074.074-.074.17-.307.106-.243.243-.667.148-.434.328-1.143.042-.148.127-.085.085.053.127.2.032.053.127.265.095.2.212.444.116.233.233.434.127.2.212.2.106.02.18-.212.085-.233.127-.55.053-.317.074-.646.032-.328.032-.497.02-.032.095-.116.074-.085.148-.127.074-.053.106-.01.032.032-.02.233 0 .52-.085.963-.074.444-.2.773-.106.328-.233.508-.127.18-.233.18-.127.01-.275-.16-.138-.18-.265-.402-.127-.222-.233-.434-.095-.222-.148-.296-.064.296-.2.688-.127.38-.275.72-.148.34-.307.572-.16.233-.296.212-.127-.095-.212-.36-.074-.275-.127-.635-.042-.37-.074-.773-.02-.402-.032-.773-.01-.38-.01-.667 0-.296 0-.423 0-.074.042-.116.053-.053.116-.085.074-.032.138-.042.064-.01.095-.01.042-.01.042.085 0 .085-.02.296-.01.212-.032.56-.01.35.01.847 0 .148.01.402.01.243.02.476.02.233.053.402.032.16.095.148zM39.4 4.4q-.01.064-.053.265-.032.2-.074.476-.042.265-.074.56-.032.296-.042.56 0 .265.032.455.042.18.127.222.243.116.497-.074.254-.2.593-.603.032 0 0 .085-.02.085-.085.2-.053.095-.116.2-.053.095-.085.127-.085.106-.243.243-.16.127-.34.212-.18.074-.35.063-.16-.01-.265-.2-.053-.127-.063-.307-.01-.2 0-.38.01-.2.032-.35.02-.16.032-.233-.222.413-.508.783-.286.37-.56.582-.275.212-.508.222-.233.02-.36-.265-.074-.275 0-.614.074-.35.222-.624.222-.38.466-.698.243-.317.52-.54.275-.222.572-.318.307-.106.635-.053zm-2 2.688q.106.02.34-.16.233-.18.487-.497.254-.328.455-.75.212-.434.275-.9-.042 0-.127 0-.074 0-.18.064-.402.265-.688.624-.286.35-.444.688-.16.328-.2.593-.032.265.074.35zm2.945-2.922q-.01-.095.095-.042.116.042.233.095.042.243.063.392.02.138.032.265.01.127.02.275.01.148.032.392.095-.243.233-.444.138-.212.35-.36.222-.148.52-.212.307-.074.73-.053 0 .085-.064.148-.053.053-.265.085-.307.053-.54.212-.222.148-.392.35-.16.2-.265.434-.095.222-.16.413-.01.095-.032.275-.01.17-.02.37 0 .2-.01.38 0 .18.02.286.01.053-.053.085-.053.02-.127.032-.074.01-.138-.01-.064-.02-.064-.074.02-1.1-.064-1.873-.074-.794-.138-1.418zm5.517-2.223q-.032.2-.074.402-.042.212-.095.402-.042.2-.074.328-.032.138-.042.17-.063.18-.17.466-.106.286-.254.603-.138.307-.317.624-.18.307-.37.53 0 .16.032.54.042.37.095.804.053.434.095.847.053.423.064.656-.053.053-.095-.02-.042-.074-.127-.254-.064-.275-.106-.508-.032-.233-.063-.466-.032-.243-.074-.508-.032-.265-.106-.603-.2.254-.487.582-.275.317-.582.572-.296.243-.593.35-.286.095-.497-.095-.127-.17-.106-.392.01-.233.127-.466.106-.243.275-.476.18-.233.36-.434.18-.2.34-.35.16-.148.233-.212.148-.095.243-.148.106-.063.18-.095.085-.042.17-.053.085-.02.212-.01-.02-.243-.032-.582 0-.34 0-.677.01-.35.02-.646.02-.296.053-.455.02-.233.095-.487.085-.254.2-.487.127-.243.275-.423.148-.2.318-.265.18-.085.36-.042.2.042.37.265.148.18.148.455 0 .265 0 .56zM44.475 4.77q.2-.212.317-.444.127-.243.286-.572.138-.286.243-.73.116-.444.16-.868.042-.434 0-.75-.042-.318-.212-.34-.148-.02-.275.116-.127.127-.233.328-.106.2-.18.413-.074.222-.106.392-.042.212-.064.38-.01.17-.02.36 0 .18-.01.402-.01.212-.042.53 0 .16.01.317.02.16.042.275.032.106.053.17.02.053.032.02zm-1.535.984q-.286.296-.423.55-.127.243-.212.455 0 .032 0 .106 0 .064.01.127.02.064.064.116.053.042.16.02.106-.042.17-.085.074-.042.127-.085.064-.053.127-.106.074-.053.18-.138.148-.16.36-.36.222-.2.38-.423.17-.222.222-.455.053-.233-.138-.455-.074 0-.16.02-.074.02-.2.106-.116.074-.286.222-.16.138-.392.38zM49.562.038q.053-.02.2-.032.16-.02.275.032.01.042.02.265.01.212.02.53.02.317.032.688.02.37.042.72.02.34.032.614.02.265.042.38.265-.053.434-.085.17-.032.286-.042.116-.02.212-.032.095-.01.233-.042.18-.01.275-.01.106 0 .148.032.053.02.053.063.01.042.01.106-.16.032-.37.095-.2.053-.423.116-.212.063-.434.138-.212.063-.402.106.01.085.032.36.02.275.053.646.032.37.064.794.042.423.085.826.042.392.085.72.042.328.085.487.042.116.042.212.01.095.064.296-.106.042-.243.063-.127.032-.222-.01-.053-.127-.085-.233-.02-.106-.042-.233-.02-.127-.042-.286-.01-.16-.042-.402-.01-.116-.032-.36-.01-.254-.042-.572-.02-.317-.053-.667-.02-.35-.042-.656-.02-.318-.032-.55-.01-.243-.01-.34-.2.042-.34.074-.138.032-.296.064-.148.032-.34.074-.2.042-.466.106 0 .222.01.476.01.243.032.635.01.254.02.783.02.53.042 1.228-.106.053-.233.106-.127.042-.212.042-.01-.063-.01-.413 0-.36 0-.836 0-.476-.01-.995 0-.53-.02-.942-.434.138-.74.2-.296.063-.36-.01-.02 0 .01-.095.032-.106.085-.2.17-.032.286-.053.127-.032.222-.053.106-.032.2-.064.106-.042.254-.106-.032-.55-.064-.984-.02-.434-.064-.804-.032-.37-.085-.72-.053-.36-.138-.773.053-.085.212-.17.17-.095.37-.02-.01.466.01.857.02.38.053.773.032.392.064.815.032.423.042.942.243-.032.582-.138.34-.106.804-.2 0-.265-.01-.7-.01-.444-.042-.9-.032-.466-.074-.868-.032-.413-.074-.614-.01-.074-.02-.095-.01-.032-.02-.042 0-.01 0-.032 0-.02.01-.074zm1.95 4.297q.2.01.444.063.243.042.476.127.233.074.423.18.2.095.328.222.127.116.148.36.02.233-.032.52-.053.286-.17.593-.106.296-.243.54-.138.243-.296.402-.16.16-.296.16-.233 0-.392-.106-.16-.116-.254-.275-.095-.16-.148-.328-.042-.18-.053-.307-.032-.56-.01-.995.02-.434.074-.72-.032-.053-.063-.095-.032-.042-.064-.074-.032-.042-.074-.074.042-.02.085-.064.085-.064.116-.127zm.38 2.52q.032.042.085.095.053.042.127.074.085.02.17 0 .085-.02.18-.116.254-.265.38-.54.127-.286.16-.53.042-.254-.01-.445-.042-.2-.148-.275-.085-.053-.148-.085-.053-.042-.148-.074-.085-.032-.222-.063-.138-.042-.36-.106-.106.34-.148.677-.042.34-.042.624.01.275.042.487.042.2.085.275zm2.432.253q.032 0 .095-.074.074-.074.17-.307.106-.243.243-.667.148-.434.328-1.143.042-.148.127-.085.085.053.127.2.032.053.127.265.095.2.212.444.116.233.233.434.127.2.212.2.106.02.18-.212.085-.233.127-.55.053-.317.074-.646.032-.328.032-.497.02-.032.095-.116.074-.085.148-.127.074-.053.106-.01.032.032-.02.233 0 .52-.085.963-.074.444-.2.773-.106.328-.233.508-.127.18-.233.18-.127.01-.275-.16-.138-.18-.265-.402-.127-.222-.233-.434-.095-.222-.148-.296-.063.296-.2.688-.127.38-.275.72-.148.34-.307.572-.16.233-.296.212-.127-.095-.212-.36-.074-.275-.127-.635-.042-.37-.074-.773-.02-.402-.032-.773-.01-.38-.01-.667 0-.296 0-.423 0-.074.042-.116.053-.053.116-.085.074-.032.138-.042.063-.01.095-.01.042-.01.042.085 0 .085-.02.296-.01.212-.032.56-.01.35.01.847 0 .148.01.402.01.243.02.476.02.233.053.402.032.16.095.148zm3.73-2.593q.032-.01.18-.053.148-.053.243-.02.307-.01.466.16.17.17.032.656-.2.54-.54.9-.328.36-.783.688.106.275.317.307.212.032.445-.064.233-.106.455-.275.222-.17.36-.296.222-.2.35-.317.138-.138.286-.328.032-.02.032.01.01.02 0 .074-.01.053-.032.148-.032.074-.064.138-.032.053-.095.127-.053.064-.148.16-.095.095-.233.254-.16.148-.307.296-.148.138-.318.243-.16.106-.36.148-.2.042-.445 0-.212-.074-.34-.16-.127-.085-.2-.17-.063-.095-.095-.17-.032-.074-.042-.127-.053-.212-.042-.572.01-.36.212-.93.138-.296.296-.497.16-.212.37-.328zm-.466 1.873q.138-.074.318-.2.2-.138.35-.307.17-.18.286-.392.127-.212.138-.445.032-.16-.01-.222-.02-.032-.042-.032-.18-.085-.36.053-.18.138-.328.392-.148.254-.254.572-.095.307-.095.582z"/></g></svg>