<svg xmlns="http://www.w3.org/2000/svg" xmlns:xlink="http://www.w3.org/1999/xlink" width="200" height="236" overflow="visible"><g transform="scale(.50505051 .5042735)"><defs><path id="A" d="M0 0h396v468H0z"/><path id="B" d="M50.474 144.25c-.469.356-1.06.533-1.771.533-.502 0-.936-.081-1.305-.242s-.677-.387-.928-.678-.439-.637-.564-1.04a4.98 4.98 0 0 1-.212-1.318c0-.476.073-.912.218-1.307s.349-.738.613-1.028a2.78 2.78 0 0 1 .934-.678c.36-.161.754-.242 1.182-.242.558 0 1.021.115 1.388.345a2.74 2.74 0 0 1 .885.876 3.46 3.46 0 0 1 .461 1.16c.085.419.119.818.103 1.197h-4.696c-.008.274.024.535.097.78a1.76 1.76 0 0 0 .352.654 1.73 1.73 0 0 0 .619.453c.251.113.547.169.887.169.437 0 .795-.1 1.075-.303s.464-.508.553-.919h1.018c-.137.701-.44 1.23-.909 1.586zm-.249-4.017c-.093-.218-.219-.405-.376-.562s-.344-.282-.559-.375-.452-.139-.71-.139c-.267 0-.508.046-.723.139s-.398.22-.553.381a1.81 1.81 0 0 0-.364.562c-.089.214-.142.441-.158.683h3.607a2.1 2.1 0 0 0-.165-.689z"/><path id="C" d="M76.055 138.396v1.318h.025c.252-.508.559-.883.923-1.125s.824-.355 1.382-.339v1.087c-.412 0-.764.056-1.055.169a1.67 1.67 0 0 0-.704.496c-.178.218-.307.482-.388.792s-.121.667-.121 1.071v2.783h-1.034v-6.252z"/><path id="D" d="M13.991 152.95v8.644h-1.034v-8.644z"/><path id="E" d="M26.848 171.433v-1.261h1.034v1.261zm1.034 1.126v6.257h-1.034v-6.257z"/><path id="F" d="M70.838 178.417c-.469.356-1.059.533-1.771.533-.502 0-.936-.081-1.305-.242s-.677-.387-.928-.678-.439-.637-.564-1.04a5 5 0 0 1-.212-1.318c0-.476.073-.912.218-1.307s.349-.738.612-1.028a2.79 2.79 0 0 1 .934-.678c.36-.161.754-.242 1.183-.242.558 0 1.021.115 1.388.345s.663.521.885.876a3.46 3.46 0 0 1 .461 1.16c.085.419.119.818.103 1.197h-4.695c-.008.274.024.535.097.78a1.76 1.76 0 0 0 .352.654c.162.19.368.341.62.453s.546.169.886.169c.437 0 .795-.1 1.075-.303s.464-.508.553-.919h1.018c-.137.701-.44 1.23-.909 1.586zm-.249-4.017a1.75 1.75 0 0 0-.377-.562 1.79 1.79 0 0 0-.558-.375c-.214-.092-.452-.139-.71-.139-.267 0-.508.046-.723.139s-.399.22-.553.381a1.81 1.81 0 0 0-.364.562c-.089.214-.141.441-.158.683h3.607c-.017-.242-.072-.471-.165-.689z"/><path id="G" d="M59.405 161.728c-.267 0-.479-.075-.637-.223s-.237-.393-.237-.733c-.283.339-.612.583-.987.733a3.28 3.28 0 0 1-1.218.223c-.283 0-.549-.031-.799-.091s-.471-.161-.661-.303-.339-.323-.448-.545-.164-.49-.164-.805c0-.355.061-.645.182-.871s.281-.409.479-.551.424-.248.679-.321.516-.133.782-.181l.806-.127c.255-.028.479-.069.673-.121s.347-.129.461-.229.17-.248.17-.442c0-.226-.042-.407-.127-.544s-.193-.242-.327-.315-.282-.121-.447-.145-.328-.036-.49-.036c-.435 0-.798.083-1.089.249s-.447.479-.472.94h-1.034c.016-.388.096-.715.242-.981s.339-.483.581-.648.521-.284.836-.357a4.38 4.38 0 0 1 .993-.109 5.87 5.87 0 0 1 .842.061c.279.04.531.123.757.248s.408.301.545.526.206.52.206.882v3.216c0 .242.014.419.042.532s.123.169.285.169c.089 0 .194-.02.315-.061v.801c-.178.105-.424.158-.739.158zm-1.445-3.156l-.66.109-.696.096a2.54 2.54 0 0 0-.63.176 1.15 1.15 0 0 0-.454.345c-.117.149-.176.353-.176.611 0 .169.034.313.103.43a.86.86 0 0 0 .266.284 1.11 1.11 0 0 0 .388.157 2.18 2.18 0 0 0 .454.048c.339 0 .63-.046.872-.139s.44-.21.593-.351.267-.294.339-.46.109-.321.109-.466v-1.053c-.129.097-.299.167-.509.211z"/><path id="H" d="M62.097 160.197c.097.157.225.281.382.374s.336.158.534.199.403.06.613.06a3.71 3.71 0 0 0 .51-.036 1.84 1.84 0 0 0 .492-.133.92.92 0 0 0 .37-.283c.097-.125.146-.284.146-.478 0-.266-.102-.468-.304-.605s-.455-.248-.759-.332l-.989-.229c-.356-.069-.686-.165-.989-.29a2.05 2.05 0 0 1-.759-.526c-.203-.225-.304-.54-.304-.943 0-.315.071-.584.212-.81s.324-.409.546-.55.473-.246.753-.314a3.48 3.48 0 0 1 .832-.103 5 5 0 0 1 .983.091c.299.061.565.166.795.315a1.63 1.63 0 0 1 .553.606c.137.254.219.571.243.951h-1.034c-.016-.202-.069-.37-.158-.503s-.202-.241-.34-.322a1.56 1.56 0 0 0-.456-.176 2.35 2.35 0 0 0-.504-.054c-.154 0-.31.012-.468.036a1.58 1.58 0 0 0-.431.127c-.13.061-.235.141-.316.242s-.122.232-.122.393c0 .178.063.325.188.441s.285.214.479.29a4.27 4.27 0 0 0 .656.194l.728.163c.259.056.512.125.759.206a2.47 2.47 0 0 1 .656.321c.19.133.344.301.462.502s.176.452.176.75c0 .379-.079.694-.236.943s-.364.452-.619.605-.542.26-.862.321-.637.091-.953.091c-.347 0-.68-.036-.995-.109a2.45 2.45 0 0 1-.837-.357 1.82 1.82 0 0 1-.582-.653c-.146-.27-.227-.599-.242-.985h1.034a1.15 1.15 0 0 0 .158.572z"/></defs><clipPath id="I"><use xlink:href="#A"/></clipPath><g fill-rule="evenodd"><path clip-path="url(#I)" d="M0 0h396v468H0z" fill="#fff"/><path d="M0 0h396v468H0zm0 0" clip-path="url(#I)" fill="#e5e7cb"/></g></g><path d="M6.061 92.462h187.879M6.061 39.333h187.879" stroke-miterlimit="10" fill="none" stroke="#fff" stroke-width="1.009"/><path d="M171.031 92.062h-8.889v-7.211h-.222c-4.556 5.768-10.667 8.653-18.001 8.653-15.333 0-25-12.98-25-27.403 0-14.866 9.444-27.624 25.111-27.624 7.111 0 13.556 3.329 17.889 8.876h.222V39.92h8.889zM128.03 65.436c0 10.206 6.001 19.859 17.112 19.859 11.444 0 17.444-9.208 17.444-19.747 0-10.429-6.555-18.86-17.556-18.86-10.333-.001-17 8.986-17 18.748zM72.501 93.551c-7.139-.46-9.673-2.299-10.133-7.243-2.648 2.3-3.8 3.22-5.527 4.139-3.224 1.84-7.37 2.99-11.055 2.99-8.406 0-13.933-5.404-13.933-13.682 0-7.588 4.03-12.647 11.63-14.487l18.079-4.255v-9.427c0-4.255-3.224-6.439-9.903-6.439-5.412 0-7.945 1.495-7.945 4.485 0 .575.115 1.035.461 1.955l-8.752 1.839c-.806-1.379-.921-1.955-.921-3.219 0-6.898 7.6-11.612 18.77-11.612 10.479 0 17.042 4.944 17.042 12.993V83.55c.23 1.38 1.612 2.299 4.261 2.759zM61.562 68.256l-19.576 5.059c-1.267 2.414-1.497 3.564-1.497 5.634 0 4.139 2.764 6.783 7.024 6.783 3.915 0 6.564-1.265 14.048-6.669zm-45.525 67.749c1.333 0 2.359.339 3.078 1.017s1.079 1.712 1.079 3.099c0 .726-.081 1.37-.242 1.931s-.412 1.033-.752 1.417-.771.676-1.296.878-1.147.303-1.866.303h-2.969v-8.644h2.969zm.097 7.675a4.69 4.69 0 0 0 .484-.031c.194-.02.4-.069.618-.145a2.81 2.81 0 0 0 .648-.333c.214-.145.406-.343.576-.593s.309-.563.418-.938.164-.83.164-1.362c0-.516-.051-.978-.152-1.386s-.267-.754-.496-1.041-.527-.504-.89-.654-.812-.224-1.345-.224H14.22v6.705h1.915zm5.355-3.44a2.92 2.92 0 0 1 .582-1.04 2.75 2.75 0 0 1 .959-.695c.38-.169.817-.254 1.311-.254.502 0 .94.085 1.317.254a2.76 2.76 0 0 1 .953.695 2.91 2.91 0 0 1 .582 1.04 4.14 4.14 0 0 1 .194 1.288 4.1 4.1 0 0 1-.194 1.282 2.92 2.92 0 0 1-.582 1.034 2.69 2.69 0 0 1-.953.689c-.376.165-.815.248-1.317.248-.494 0-.93-.083-1.311-.248s-.699-.395-.959-.689-.453-.639-.582-1.034-.194-.822-.194-1.282.065-.889.194-1.288zm1.046 2.295a2.12 2.12 0 0 0 .419.738 1.82 1.82 0 0 0 .626.453 1.87 1.87 0 0 0 .76.157 1.87 1.87 0 0 0 .76-.157c.239-.105.448-.256.626-.453s.318-.443.42-.738a3.1 3.1 0 0 0 .152-1.01c0-.379-.051-.715-.152-1.01a2.19 2.19 0 0 0-.42-.744 1.79 1.79 0 0 0-.626-.459 1.87 1.87 0 0 0-.76-.157 1.87 1.87 0 0 0-.76.157 1.8 1.8 0 0 0-.626.459c-.179.201-.318.45-.419.744a3.09 3.09 0 0 0-.152 1.01c0 .379.051.716.152 1.01zm10.484 2.115l-.002-.993h-.021c-.219.388-.497.672-.837.853s-.74.272-1.201.272c-.413 0-.757-.054-1.031-.163a1.65 1.65 0 0 1-.667-.466 1.75 1.75 0 0 1-.358-.72 3.85 3.85 0 0 1-.103-.926v-4.115h1.034v4.234c0 .388.113.694.339.919s.537.339.933.339a2.1 2.1 0 0 0 .818-.145c.23-.096.422-.234.575-.411a1.77 1.77 0 0 0 .345-.623c.077-.238.115-.498.115-.78v-3.532h1.032v6.257zm3.797-8.645v3.238h.024a1.54 1.54 0 0 1 .8-.756 2.99 2.99 0 0 1 1.2-.236c.485 0 .907.089 1.267.266a2.58 2.58 0 0 1 .897.72c.238.303.418.651.539 1.046a4.27 4.27 0 0 1 .182 1.258c0 .444-.059.863-.176 1.258a2.96 2.96 0 0 1-.533 1.034c-.238.294-.537.526-.897.695s-.778.254-1.254.254a3.1 3.1 0 0 1-.516-.048 2.89 2.89 0 0 1-.564-.157 2.22 2.22 0 0 1-.527-.297 1.66 1.66 0 0 1-.418-.466h-.024v.836h-1.034v-8.645h1.034zm3.704 4.609a2.3 2.3 0 0 0-.352-.744 1.72 1.72 0 0 0-.607-.52c-.246-.129-.536-.194-.868-.194-.348 0-.643.069-.886.206a1.78 1.78 0 0 0-.595.538c-.154.221-.265.474-.334.755a3.62 3.62 0 0 0-.103.859 3.59 3.59 0 0 0 .109.889 2.19 2.19 0 0 0 .346.756 1.77 1.77 0 0 0 .613.526c.251.133.554.2.91.2s.653-.069.892-.205a1.66 1.66 0 0 0 .577-.544 2.37 2.37 0 0 0 .316-.774c.065-.29.097-.588.097-.894a3.18 3.18 0 0 0-.115-.853zm3.714-4.609v8.644H43.2v-8.644z"/><use xlink:href="#B"/><path d="M56.084 140.796v.969H52.58v-.969zm2.375 2.456a1.09 1.09 0 0 0 .382.374 1.75 1.75 0 0 0 .534.199c.198.04.403.06.613.06a3.82 3.82 0 0 0 .51-.036 1.83 1.83 0 0 0 .491-.133.92.92 0 0 0 .37-.283c.097-.124.145-.284.145-.478 0-.266-.101-.468-.304-.605a2.6 2.6 0 0 0-.759-.332l-.989-.229c-.356-.069-.686-.165-.989-.29a2.05 2.05 0 0 1-.759-.526c-.202-.225-.304-.54-.304-.943 0-.315.071-.584.213-.81a1.74 1.74 0 0 1 .546-.55 2.51 2.51 0 0 1 .753-.314c.279-.069.557-.103.831-.103a5.01 5.01 0 0 1 .983.091 2.29 2.29 0 0 1 .795.315c.23.149.415.351.553.606s.219.571.242.951h-1.034a1.05 1.05 0 0 0-.158-.503c-.089-.134-.203-.241-.34-.322a1.56 1.56 0 0 0-.455-.176 2.37 2.37 0 0 0-.504-.054c-.154 0-.31.012-.468.036a1.58 1.58 0 0 0-.431.127c-.129.06-.235.141-.316.242a.61.61 0 0 0-.121.393c0 .178.063.325.188.441s.285.214.48.29a4.37 4.37 0 0 0 .656.194l.728.163c.259.056.512.125.759.206a2.47 2.47 0 0 1 .656.321 1.57 1.57 0 0 1 .461.502c.117.201.176.452.176.75 0 .379-.079.694-.237.944s-.364.452-.619.605a2.61 2.61 0 0 1-.862.321c-.32.061-.637.091-.953.091a4.43 4.43 0 0 1-.995-.109 2.45 2.45 0 0 1-.837-.357 1.82 1.82 0 0 1-.582-.653c-.145-.27-.226-.599-.242-.985H58.3c.009.225.062.416.159.572zm8.16-4.86v.906h-1.247v3.887c0 .121.01.218.03.29a.3.3 0 0 0 .115.169c.057.04.135.067.236.079a3.43 3.43 0 0 0 .393.018h.472v.906h-.789c-.267 0-.495-.018-.685-.054s-.344-.103-.461-.2-.205-.234-.261-.411-.085-.411-.085-.702v-3.982H63.27v-.906h1.067v-1.875h1.034v1.875h1.247zm1.196 1.848a2.92 2.92 0 0 1 .582-1.04 2.75 2.75 0 0 1 .959-.695c.38-.169.817-.254 1.311-.254.502 0 .94.085 1.317.254a2.76 2.76 0 0 1 .953.695 2.91 2.91 0 0 1 .582 1.04 4.14 4.14 0 0 1 .194 1.288 4.1 4.1 0 0 1-.194 1.282 2.92 2.92 0 0 1-.582 1.034 2.69 2.69 0 0 1-.953.689c-.376.165-.815.248-1.317.248-.494 0-.93-.083-1.311-.248s-.699-.395-.959-.689-.453-.639-.582-1.034-.194-.822-.194-1.282.065-.889.194-1.288zm1.047 2.295a2.12 2.12 0 0 0 .419.738 1.82 1.82 0 0 0 .626.453 1.87 1.87 0 0 0 .76.157 1.87 1.87 0 0 0 .76-.157c.239-.105.448-.256.626-.453s.318-.443.42-.738a3.1 3.1 0 0 0 .152-1.01c0-.379-.051-.715-.152-1.01a2.19 2.19 0 0 0-.42-.744 1.79 1.79 0 0 0-.626-.459 1.87 1.87 0 0 0-.76-.157 1.87 1.87 0 0 0-.76.157 1.8 1.8 0 0 0-.626.459c-.179.201-.318.45-.419.744a3.09 3.09 0 0 0-.152 1.01c0 .379.051.716.152 1.01z"/><use xlink:href="#C"/><path d="M87.763 146.243c-.117.21-.246.381-.388.514a1.33 1.33 0 0 1-.467.29 1.82 1.82 0 0 1-.606.091 2.74 2.74 0 0 1-.364-.024 1.72 1.72 0 0 1-.352-.085v-.944l.297.097c.101.032.204.048.309.048.21 0 .38-.048.509-.145s.242-.238.339-.424l.424-1.052-2.485-6.218h1.164l1.83 5.117h.024l1.758-5.117h1.091l-2.727 7.076c-.121.306-.24.564-.358.774z"/><use xlink:href="#D"/><path d="M15.642 157.186a2.92 2.92 0 0 1 .582-1.04 2.75 2.75 0 0 1 .959-.695c.38-.169.817-.254 1.311-.254.502 0 .94.085 1.317.254a2.76 2.76 0 0 1 .953.695 2.91 2.91 0 0 1 .582 1.04 4.14 4.14 0 0 1 .194 1.288 4.1 4.1 0 0 1-.194 1.282 2.92 2.92 0 0 1-.582 1.034 2.69 2.69 0 0 1-.953.689c-.376.165-.815.248-1.317.248-.494 0-.93-.083-1.311-.248s-.699-.395-.959-.689-.453-.639-.582-1.034-.194-.822-.194-1.282a4.14 4.14 0 0 1 .194-1.288zm1.046 2.295a2.12 2.12 0 0 0 .419.738 1.82 1.82 0 0 0 .626.453 1.87 1.87 0 0 0 .76.157 1.87 1.87 0 0 0 .76-.157 1.82 1.82 0 0 0 .626-.453c.178-.197.318-.443.42-.738a3.1 3.1 0 0 0 .152-1.01c0-.379-.051-.715-.152-1.01a2.19 2.19 0 0 0-.42-.744 1.79 1.79 0 0 0-.626-.459 1.87 1.87 0 0 0-.76-.157 1.87 1.87 0 0 0-.76.157 1.8 1.8 0 0 0-.626.459c-.179.201-.318.45-.419.744a3.09 3.09 0 0 0-.152 1.01c0 .379.051.716.152 1.01zm11.38 2.112l-1.273-4.973h-.024l-1.261 4.973h-1.115l-2.012-6.256h1.139l1.418 5.118h.024l1.261-5.118h1.127l1.309 5.118h.024l1.406-5.118h1.067l-2 6.256zm8.717-.398c-.469.356-1.06.533-1.771.533-.502 0-.936-.081-1.305-.242s-.677-.387-.928-.678a2.87 2.87 0 0 1-.564-1.04 4.98 4.98 0 0 1-.212-1.318c0-.476.073-.912.218-1.307a3.09 3.09 0 0 1 .613-1.028 2.78 2.78 0 0 1 .934-.678c.36-.161.754-.242 1.182-.242.558 0 1.021.115 1.388.345a2.74 2.74 0 0 1 .885.876 3.46 3.46 0 0 1 .461 1.16c.085.419.119.818.103 1.197h-4.695c-.008.274.024.535.097.78a1.76 1.76 0 0 0 .352.654 1.73 1.73 0 0 0 .619.453c.251.113.547.169.887.169.437 0 .795-.1 1.075-.303s.464-.508.553-.919h1.018c-.138.701-.441 1.23-.91 1.586zm-.249-4.017c-.093-.218-.219-.405-.376-.562s-.344-.282-.559-.375a1.77 1.77 0 0 0-.71-.139c-.267 0-.508.046-.723.139s-.398.22-.553.381a1.81 1.81 0 0 0-.364.562 2.13 2.13 0 0 0-.158.683H36.7a2.12 2.12 0 0 0-.165-.689z"/><use xlink:href="#C" x="-36.065" y="16.945"/><path d="M13.803 179.853c-.234-.448-.434-.902-.599-1.362a9 9 0 0 1-.381-1.417 8.44 8.44 0 0 1-.133-1.525 9.16 9.16 0 0 1 .478-2.881 9.2 9.2 0 0 1 1.423-2.7h.788c-.582.92-.994 1.833-1.236 2.736s-.364 1.853-.364 2.846c0 1.018.123 1.982.37 2.894s.657 1.833 1.23 2.761h-.788l-.787-1.35zm3.41-7.29v.919h.021c.469-.71 1.145-1.064 2.028-1.064.388 0 .74.081 1.056.242s.538.435.668.823c.211-.339.487-.601.831-.787s.722-.278 1.135-.278a3.29 3.29 0 0 1 .855.103c.255.069.474.175.656.321a1.45 1.45 0 0 1 .425.562c.101.229.152.506.152.829v4.584h-1.033v-4.101a2.9 2.9 0 0 0-.048-.544 1.11 1.11 0 0 0-.182-.442.91.91 0 0 0-.37-.297c-.158-.073-.362-.109-.612-.109-.51 0-.91.145-1.201.435s-.436.678-.436 1.161v3.896h-1.034v-4.101a2.66 2.66 0 0 0-.055-.557 1.18 1.18 0 0 0-.188-.442.88.88 0 0 0-.358-.29c-.15-.069-.341-.103-.576-.103-.299 0-.556.061-.77.181s-.388.266-.521.436a1.74 1.74 0 0 0-.291.526c-.061.182-.091.333-.091.453v3.896H16.24v-6.252h.973z"/><use xlink:href="#E"/><path d="M30.655 172.563v.991h.021c.429-.757 1.108-1.137 2.038-1.137.413 0 .757.056 1.031.169a1.69 1.69 0 0 1 .667.472c.17.201.289.441.358.72s.103.586.103.925v4.112H33.84v-4.234c0-.387-.113-.694-.339-.919s-.537-.339-.932-.339c-.315 0-.588.048-.818.145s-.422.234-.576.411-.268.385-.345.623-.115.498-.115.78v3.532h-1.034v-6.252zm10.194 6.254l-.003-.993h-.021c-.219.388-.497.672-.837.853s-.74.272-1.201.272c-.413 0-.757-.054-1.031-.163a1.65 1.65 0 0 1-.667-.466c-.17-.202-.289-.442-.358-.72a3.85 3.85 0 0 1-.103-.926v-4.115h1.034v4.234c0 .388.113.694.339.919s.537.339.933.339a2.1 2.1 0 0 0 .818-.145c.23-.096.422-.234.576-.411s.268-.385.345-.623.115-.498.115-.78v-3.532h1.034v6.257zm3.513-1.398a1.09 1.09 0 0 0 .382.374c.158.092.336.158.534.199a3.02 3.02 0 0 0 .613.06 3.82 3.82 0 0 0 .51-.036 1.83 1.83 0 0 0 .491-.133.92.92 0 0 0 .37-.283c.097-.124.145-.284.145-.478 0-.266-.101-.468-.304-.605a2.6 2.6 0 0 0-.759-.332l-.989-.229c-.356-.069-.686-.165-.989-.29a2.05 2.05 0 0 1-.759-.526c-.202-.225-.304-.54-.304-.943 0-.315.071-.584.213-.81a1.74 1.74 0 0 1 .546-.55 2.51 2.51 0 0 1 .753-.314c.279-.069.557-.103.831-.103a5.01 5.01 0 0 1 .983.091 2.29 2.29 0 0 1 .795.315c.23.149.415.351.553.606s.219.571.242.951h-1.034a1.05 1.05 0 0 0-.158-.503c-.089-.134-.203-.241-.34-.322a1.56 1.56 0 0 0-.455-.176 2.37 2.37 0 0 0-.504-.054c-.154 0-.31.012-.468.036a1.58 1.58 0 0 0-.431.127c-.129.06-.235.141-.316.242a.61.61 0 0 0-.121.393c0 .178.063.325.188.441s.285.214.48.29a4.37 4.37 0 0 0 .656.194l.728.163c.259.056.512.125.759.206a2.47 2.47 0 0 1 .656.321 1.57 1.57 0 0 1 .461.502c.117.201.176.452.176.75 0 .379-.079.694-.237.943s-.364.452-.619.605a2.61 2.61 0 0 1-.862.321c-.32.061-.637.091-.953.091a4.43 4.43 0 0 1-.995-.109c-.315-.073-.594-.192-.837-.357a1.82 1.82 0 0 1-.582-.653c-.145-.27-.226-.599-.242-.985h1.034c.009.225.062.416.159.572zm9.221-3.769c-.259-.218-.606-.326-1.042-.326-.372 0-.683.069-.934.206a1.66 1.66 0 0 0-.6.544c-.149.226-.257.486-.321.78s-.097.599-.097.913a3.45 3.45 0 0 0 .103.846 2.29 2.29 0 0 0 .321.732c.145.214.335.385.57.514a1.71 1.71 0 0 0 .836.194c.509 0 .907-.133 1.194-.398s.463-.64.527-1.123h1.055c-.113.774-.402 1.371-.867 1.79s-1.097.629-1.897.629c-.477 0-.899-.077-1.267-.23s-.674-.371-.921-.653-.431-.619-.557-1.01a4.22 4.22 0 0 1-.187-1.288 4.6 4.6 0 0 1 .181-1.313c.121-.407.305-.762.551-1.064a2.58 2.58 0 0 1 .927-.714c.372-.173.804-.26 1.297-.26a3.79 3.79 0 0 1 .999.127c.311.085.586.215.824.392s.434.401.588.671.251.591.291.961H54.09c-.08-.394-.249-.701-.508-.918zm7.193 5.167l-.002-.993h-.021c-.219.388-.497.672-.837.853s-.74.272-1.201.272c-.413 0-.757-.054-1.031-.163a1.65 1.65 0 0 1-.667-.466 1.75 1.75 0 0 1-.358-.72 3.85 3.85 0 0 1-.103-.926v-4.115h1.034v4.234c0 .388.113.694.339.919s.537.339.933.339a2.1 2.1 0 0 0 .818-.145c.23-.096.422-.234.575-.411a1.77 1.77 0 0 0 .345-.623c.077-.238.115-.498.115-.78v-3.532h1.034v6.257z"/><use xlink:href="#D" x="50.606" y="17.222"/><use xlink:href="#F"/><path d="M73.459 178.473c.242-.908.364-1.855.364-2.84 0-1.017-.123-1.984-.37-2.9s-.653-1.839-1.218-2.766h.776l.787 1.35a10.7 10.7 0 0 1 .599 1.368 9.12 9.12 0 0 1 .381 1.422c.089.485.133.993.133 1.525 0 .953-.159 1.911-.478 2.876a9.23 9.23 0 0 1-1.423 2.694h-.776c.573-.912.981-1.822 1.224-2.73zm6.978-4.996c.178-.266.404-.481.679-.642s.584-.276.927-.345a5.28 5.28 0 0 1 1.037-.103c.315 0 .634.022.958.067a2.94 2.94 0 0 1 .885.261 1.75 1.75 0 0 1 .655.539c.17.23.255.535.255.914v3.258a6.53 6.53 0 0 0 .048.811c.032.259.089.452.17.581l-1.746-.001a2.43 2.43 0 0 1-.079-.296c-.02-.101-.034-.203-.042-.307-.275.282-.598.479-.971.592a3.9 3.9 0 0 1-1.14.169c-.299 0-.578-.036-.837-.109s-.485-.186-.679-.339-.346-.347-.455-.581-.164-.513-.164-.835c0-.356.063-.648.188-.878a1.58 1.58 0 0 1 .485-.551c.198-.137.425-.241.679-.309a7.3 7.3 0 0 1 .771-.163l.765-.097a4.46 4.46 0 0 0 .667-.109c.194-.048.348-.119.461-.212s.166-.228.158-.406c0-.186-.03-.333-.091-.442a.66.66 0 0 0-.242-.254.94.94 0 0 0-.352-.121c-.134-.021-.277-.031-.431-.031-.34 0-.607.073-.801.218s-.308.388-.34.727h-1.72c.024-.404.125-.739.303-1.006zm3.401 2.432a2.72 2.72 0 0 1-.353.091l-.394.061-.413.06a3.22 3.22 0 0 0-.383.097c-.125.04-.235.095-.328.163a.78.78 0 0 0-.225.26.83.83 0 0 0-.085.399c0 .154.028.283.085.387s.134.188.231.248.211.103.34.127a2.19 2.19 0 0 0 .401.036c.34 0 .604-.056.789-.169s.324-.248.413-.405a1.31 1.31 0 0 0 .164-.478l.031-.387v-.641a.78.78 0 0 1-.274.151zm33.566-38.722c-.384-.278-.875-.418-1.473-.418a3.49 3.49 0 0 0-.715.073 1.91 1.91 0 0 0-.624.242 1.28 1.28 0 0 0-.436.453c-.109.189-.164.426-.164.708a.9.9 0 0 0 .236.647c.157.165.368.301.63.405a5.33 5.33 0 0 0 .891.26l1.012.223 1.012.284a3.35 3.35 0 0 1 .891.441 2.1 2.1 0 0 1 .63.702c.157.282.236.637.236 1.064 0 .46-.103.853-.309 1.18a2.55 2.55 0 0 1-.794.798 3.49 3.49 0 0 1-1.085.448c-.4.093-.798.139-1.194.139a5.11 5.11 0 0 1-1.377-.181 3.41 3.41 0 0 1-1.14-.549 2.6 2.6 0 0 1-.776-.943c-.19-.383-.285-.837-.285-1.362h1.089c0 .363.071.676.212.938a1.92 1.92 0 0 0 .558.647 2.35 2.35 0 0 0 .807.375 3.7 3.7 0 0 0 .946.121 4.25 4.25 0 0 0 .782-.073 2.34 2.34 0 0 0 .71-.248 1.41 1.41 0 0 0 .509-.478c.13-.201.194-.46.194-.775 0-.299-.079-.54-.236-.726a1.74 1.74 0 0 0-.63-.454c-.263-.116-.56-.212-.891-.284l-1.012-.224-1.012-.266a3.66 3.66 0 0 1-.891-.399 1.9 1.9 0 0 1-.63-.641c-.157-.262-.236-.591-.236-.986 0-.435.089-.812.267-1.132a2.33 2.33 0 0 1 .709-.787c.295-.207.631-.359 1.007-.46a4.44 4.44 0 0 1 1.157-.151c.445 0 .857.052 1.236.157a2.8 2.8 0 0 1 1 .496 2.41 2.41 0 0 1 .679.854c.166.342.257.752.273 1.228h-1.091c-.065-.622-.289-1.071-.673-1.349z"/><use xlink:href="#E" x="94.17" y="-34.167"/><path d="M124.825 138.396v.991h.021c.429-.757 1.108-1.137 2.038-1.137.413 0 .756.056 1.031.169a1.69 1.69 0 0 1 .667.472c.17.201.289.441.358.72a3.86 3.86 0 0 1 .103.925v4.112h-1.034v-4.234c0-.387-.113-.694-.339-.919s-.536-.339-.932-.339c-.315 0-.588.048-.818.145s-.422.234-.576.411-.268.385-.345.623a2.54 2.54 0 0 0-.115.78v3.532h-1.034v-6.252zm10.675 8.02c-.469.508-1.204.762-2.205.762a4.27 4.27 0 0 1-.891-.096c-.303-.064-.578-.168-.824-.313a1.92 1.92 0 0 1-.612-.567c-.161-.233-.25-.52-.266-.859h1.034a.76.76 0 0 0 .176.472 1.29 1.29 0 0 0 .399.315c.157.081.328.139.514.176a2.81 2.81 0 0 0 .532.054c.339 0 .625-.059.859-.175a1.61 1.61 0 0 0 .58-.485 2.01 2.01 0 0 0 .333-.745c.068-.29.103-.61.103-.956v-.411h-.024a1.73 1.73 0 0 1-.806.853 2.5 2.5 0 0 1-1.145.272c-.469 0-.876-.085-1.224-.254a2.56 2.56 0 0 1-.873-.683 2.91 2.91 0 0 1-.527-1.004 4.15 4.15 0 0 1-.176-1.216 4.75 4.75 0 0 1 .145-1.144 3.1 3.1 0 0 1 .485-1.065 2.65 2.65 0 0 1 .896-.787c.371-.205.828-.308 1.369-.308a2.32 2.32 0 0 1 1.091.26 1.83 1.83 0 0 1 .775.78h.012v-.895h.971v5.722c.002 1.022-.233 1.789-.702 2.296zm-1.315-2.814c.238-.141.43-.326.576-.557s.253-.49.321-.78.103-.58.103-.871a3.42 3.42 0 0 0-.097-.81 2.26 2.26 0 0 0-.309-.72 1.61 1.61 0 0 0-.552-.514c-.227-.129-.502-.194-.825-.194-.331 0-.615.063-.849.188s-.427.292-.576.502a2.12 2.12 0 0 0-.327.726c-.069.274-.103.56-.103.859 0 .282.028.564.085.847a2.41 2.41 0 0 0 .291.768 1.64 1.64 0 0 0 .545.557c.227.141.51.212.849.212s.628-.07.867-.211z"/><use xlink:href="#D" x="125.067" y="-16.945"/><path d="M145.298 144.25c-.469.356-1.06.533-1.771.533-.502 0-.936-.081-1.305-.242s-.678-.387-.928-.678-.439-.637-.564-1.04a4.98 4.98 0 0 1-.212-1.318c0-.476.073-.912.218-1.307s.35-.738.613-1.028a2.78 2.78 0 0 1 .934-.678c.36-.161.754-.242 1.182-.242.558 0 1.021.115 1.388.345a2.74 2.74 0 0 1 .885.876 3.45 3.45 0 0 1 .461 1.16 4.99 4.99 0 0 1 .104 1.197h-4.695a2.46 2.46 0 0 0 .096.78 1.77 1.77 0 0 0 .352.654 1.73 1.73 0 0 0 .62.453c.251.113.546.169.887.169.437 0 .795-.1 1.075-.303s.464-.508.553-.919h1.018c-.138.701-.441 1.23-.91 1.586zm-.249-4.017c-.093-.218-.219-.405-.376-.562s-.344-.282-.559-.375a1.77 1.77 0 0 0-.71-.139c-.267 0-.508.046-.723.139s-.398.22-.553.381a1.81 1.81 0 0 0-.364.562 2.11 2.11 0 0 0-.158.683h3.607c-.017-.242-.071-.471-.165-.689zm5.86.563v.969h-3.504v-.969zm2.374 2.456a1.09 1.09 0 0 0 .382.374 1.75 1.75 0 0 0 .534.199c.198.04.403.06.613.06.162 0 .331-.012.51-.036s.342-.068.491-.133.273-.159.37-.283.145-.284.145-.478c0-.266-.101-.468-.304-.605s-.455-.248-.759-.332l-.989-.229c-.356-.069-.686-.165-.989-.29a2.05 2.05 0 0 1-.759-.526c-.202-.225-.304-.54-.304-.943 0-.315.071-.584.213-.81a1.74 1.74 0 0 1 .546-.55 2.51 2.51 0 0 1 .753-.314c.279-.069.557-.103.831-.103a5.01 5.01 0 0 1 .983.091 2.29 2.29 0 0 1 .795.315c.23.149.415.351.553.606s.219.571.242.951h-1.034a1.05 1.05 0 0 0-.158-.503c-.089-.134-.203-.241-.34-.322a1.56 1.56 0 0 0-.455-.176 2.37 2.37 0 0 0-.504-.054c-.154 0-.31.012-.468.036a1.58 1.58 0 0 0-.431.127c-.129.06-.235.141-.316.242a.61.61 0 0 0-.121.393c0 .178.063.325.188.441s.285.214.479.29.412.141.656.194l.728.163c.259.056.512.125.759.206a2.49 2.49 0 0 1 .656.321 1.57 1.57 0 0 1 .461.502c.117.201.176.452.176.75 0 .379-.079.694-.237.944s-.364.452-.619.605a2.61 2.61 0 0 1-.862.321c-.32.061-.637.091-.953.091a4.43 4.43 0 0 1-.995-.109 2.45 2.45 0 0 1-.837-.357 1.82 1.82 0 0 1-.582-.653c-.145-.27-.226-.599-.242-.985h1.034c.008.225.061.416.158.572zm8.16-4.86v.906h-1.247v3.887c0 .121.01.218.03.29a.3.3 0 0 0 .115.169c.057.04.135.067.236.079a3.46 3.46 0 0 0 .393.018h.472v.906h-.789c-.267 0-.495-.018-.685-.054a1.01 1.01 0 0 1-.461-.2c-.117-.096-.205-.234-.261-.411s-.085-.411-.085-.702v-3.982h-1.066v-.906h1.066v-1.875h1.034v1.875h1.246zm1.196 1.848a2.92 2.92 0 0 1 .582-1.04 2.75 2.75 0 0 1 .959-.695c.38-.169.817-.254 1.311-.254.502 0 .94.085 1.316.254a2.76 2.76 0 0 1 .953.695 2.91 2.91 0 0 1 .582 1.04 4.14 4.14 0 0 1 .194 1.288 4.1 4.1 0 0 1-.194 1.282 2.92 2.92 0 0 1-.582 1.034c-.259.294-.577.524-.953.689s-.815.248-1.316.248c-.494 0-.931-.083-1.311-.248s-.7-.395-.959-.689-.453-.639-.582-1.034-.194-.822-.194-1.282a4.17 4.17 0 0 1 .194-1.288zm1.047 2.295c.101.294.241.54.419.738a1.83 1.83 0 0 0 .626.453 1.87 1.87 0 0 0 .76.157 1.87 1.87 0 0 0 .76-.157c.239-.105.448-.256.626-.453s.318-.443.42-.738a3.1 3.1 0 0 0 .152-1.01c0-.379-.051-.715-.152-1.01a2.19 2.19 0 0 0-.42-.744 1.79 1.79 0 0 0-.626-.459 1.87 1.87 0 0 0-.76-.157 1.87 1.87 0 0 0-.76.157 1.79 1.79 0 0 0-.626.459c-.178.202-.318.45-.419.744s-.152.631-.152 1.01.05.716.152 1.01z"/><use xlink:href="#C" x="94.824"/><path d="M182.31 146.243c-.117.21-.246.381-.388.514s-.297.23-.467.29a1.82 1.82 0 0 1-.606.091c-.121 0-.242-.008-.364-.024a1.7 1.7 0 0 1-.351-.085v-.943l.297.097a1.02 1.02 0 0 0 .309.048c.21 0 .38-.048.509-.145s.242-.238.339-.424l.425-1.052-2.485-6.218h1.164l1.83 5.117h.024l1.758-5.117h1.091l-2.727 7.076c-.122.306-.241.564-.358.774z"/><use xlink:href="#D" x="100"/><path d="M115.642 157.186a2.92 2.92 0 0 1 .582-1.04c.258-.294.579-.526.958-.695s.817-.254 1.311-.254c.502 0 .94.085 1.317.254a2.77 2.77 0 0 1 .953.695 2.91 2.91 0 0 1 .582 1.04 4.14 4.14 0 0 1 .194 1.288 4.1 4.1 0 0 1-.194 1.282 2.92 2.92 0 0 1-.582 1.034 2.69 2.69 0 0 1-.953.689c-.376.165-.815.248-1.317.248-.494 0-.93-.083-1.311-.248a2.67 2.67 0 0 1-.958-.689c-.259-.294-.453-.639-.582-1.034s-.194-.822-.194-1.282a4.14 4.14 0 0 1 .194-1.288zm1.046 2.295a2.12 2.12 0 0 0 .419.738 1.82 1.82 0 0 0 .626.453 1.87 1.87 0 0 0 .76.157 1.87 1.87 0 0 0 .76-.157 1.82 1.82 0 0 0 .626-.453c.178-.198.318-.443.419-.738a3.1 3.1 0 0 0 .152-1.01c0-.379-.051-.715-.152-1.01s-.241-.542-.419-.744-.387-.355-.626-.459a1.87 1.87 0 0 0-.76-.157 1.87 1.87 0 0 0-.76.157 1.79 1.79 0 0 0-.626.459c-.178.202-.318.45-.419.744a3.09 3.09 0 0 0-.152 1.01c0 .379.051.716.152 1.01zm11.38 2.112l-1.273-4.973h-.025l-1.261 4.973h-1.115l-2.012-6.256h1.139l1.418 5.118h.024l1.261-5.118h1.127l1.309 5.118h.024l1.406-5.118h1.067l-2 6.256zm8.717-.398c-.469.356-1.06.533-1.771.533-.502 0-.936-.081-1.305-.242s-.677-.387-.928-.678a2.87 2.87 0 0 1-.564-1.04 5 5 0 0 1-.213-1.318c0-.476.073-.912.219-1.307s.349-.738.613-1.028a2.78 2.78 0 0 1 .934-.678c.36-.161.754-.242 1.182-.242.558 0 1.021.115 1.388.345a2.74 2.74 0 0 1 .885.876 3.46 3.46 0 0 1 .461 1.16 4.96 4.96 0 0 1 .103 1.197h-4.695c-.008.274.025.535.097.78a1.76 1.76 0 0 0 .352.654 1.72 1.72 0 0 0 .619.453c.251.112.547.169.887.169.437 0 .795-.1 1.075-.303s.464-.508.553-.919h1.019c-.138.701-.441 1.23-.91 1.586zm-.249-4.017c-.093-.218-.219-.405-.376-.562s-.344-.282-.559-.375a1.77 1.77 0 0 0-.71-.139c-.267 0-.508.046-.723.139s-.398.22-.553.381a1.82 1.82 0 0 0-.365.562c-.089.214-.141.441-.158.683h3.607a2.1 2.1 0 0 0-.164-.689z"/><use xlink:href="#C" x="63.935" y="16.945"/><path d="M113.803 179.853a11.02 11.02 0 0 1-.6-1.362 9 9 0 0 1-.381-1.417 8.44 8.44 0 0 1-.133-1.525 9.16 9.16 0 0 1 .478-2.881 9.21 9.21 0 0 1 1.423-2.7h.788c-.582.92-.994 1.833-1.236 2.736s-.364 1.853-.364 2.846c0 1.018.123 1.982.37 2.894s.656 1.833 1.23 2.761h-.788l-.786-1.35zm3.41-7.29v.919h.021c.47-.71 1.145-1.064 2.028-1.064.388 0 .74.081 1.056.242s.538.435.668.823a2.2 2.2 0 0 1 .831-.787c.343-.186.722-.278 1.135-.278.315 0 .6.034.855.103s.474.175.656.321a1.45 1.45 0 0 1 .425.562c.101.229.152.506.152.829v4.584h-1.034v-4.101a2.86 2.86 0 0 0-.048-.544c-.033-.169-.093-.317-.181-.442a.92.92 0 0 0-.37-.297c-.157-.074-.362-.109-.612-.109-.51 0-.91.145-1.201.435s-.436.678-.436 1.161v3.896h-1.034v-4.101a2.66 2.66 0 0 0-.054-.557 1.18 1.18 0 0 0-.188-.442.88.88 0 0 0-.358-.29c-.149-.069-.341-.103-.576-.103-.299 0-.556.061-.769.181a1.73 1.73 0 0 0-.521.436 1.74 1.74 0 0 0-.291.526c-.061.182-.091.333-.091.453v3.896h-1.034v-6.252h.972z"/><use xlink:href="#E" x="100"/><path d="M130.655 172.563v.991h.021c.429-.757 1.108-1.137 2.038-1.137.412 0 .757.056 1.031.169a1.69 1.69 0 0 1 .667.472c.17.201.289.441.358.72s.103.586.103.925v4.112h-1.034v-4.234c0-.387-.113-.694-.339-.919s-.537-.339-.933-.339c-.315 0-.587.048-.817.145s-.422.234-.576.411-.268.385-.345.623-.115.498-.115.78v3.532h-1.034v-6.252zm10.194 6.254l-.003-.993h-.021c-.219.388-.497.672-.837.853s-.74.272-1.202.272c-.412 0-.757-.054-1.031-.163a1.65 1.65 0 0 1-.667-.466 1.75 1.75 0 0 1-.358-.72 3.84 3.84 0 0 1-.103-.926v-4.115h1.034v4.234c0 .388.113.694.339.919s.537.339.933.339c.315 0 .587-.048.817-.145s.422-.234.576-.411.268-.385.345-.623.115-.498.115-.78v-3.532h1.034v6.257zm3.513-1.398a1.09 1.09 0 0 0 .382.374c.158.092.335.158.534.199a3.11 3.11 0 0 0 .613.06 3.82 3.82 0 0 0 .51-.036c.178-.024.342-.068.492-.133a.93.93 0 0 0 .37-.283c.097-.124.145-.284.145-.478 0-.266-.101-.468-.304-.605s-.456-.248-.759-.332l-.989-.229c-.356-.069-.686-.165-.989-.29a2.06 2.06 0 0 1-.759-.526c-.202-.225-.304-.54-.304-.943 0-.315.071-.584.213-.81a1.74 1.74 0 0 1 .546-.55 2.51 2.51 0 0 1 .753-.314c.279-.069.557-.103.831-.103a5.01 5.01 0 0 1 .983.091 2.29 2.29 0 0 1 .795.315c.23.149.415.351.553.606s.219.571.242.951h-1.034a1.05 1.05 0 0 0-.158-.503c-.089-.134-.203-.241-.34-.322a1.56 1.56 0 0 0-.455-.176 2.37 2.37 0 0 0-.504-.054c-.154 0-.31.012-.468.036a1.58 1.58 0 0 0-.431.127c-.129.06-.235.141-.316.242a.61.61 0 0 0-.121.393c0 .178.063.325.188.441s.285.214.48.29a4.37 4.37 0 0 0 .656.194l.728.163c.259.056.512.125.759.206a2.47 2.47 0 0 1 .656.321 1.57 1.57 0 0 1 .461.502c.117.201.176.452.176.75 0 .379-.079.694-.237.943s-.364.452-.619.605-.541.26-.861.321-.637.091-.953.091a4.43 4.43 0 0 1-.995-.109c-.315-.073-.594-.192-.837-.357a1.82 1.82 0 0 1-.582-.653c-.145-.27-.226-.599-.242-.985h1.034c.009.225.062.416.159.572zm9.221-3.769c-.259-.218-.606-.326-1.042-.326-.372 0-.683.069-.934.206a1.66 1.66 0 0 0-.6.544c-.149.226-.257.486-.321.78s-.097.599-.097.913a3.44 3.44 0 0 0 .103.846 2.29 2.29 0 0 0 .321.732c.145.214.335.385.57.514a1.71 1.71 0 0 0 .836.194c.509 0 .907-.133 1.194-.398s.463-.64.527-1.123h1.055c-.114.774-.402 1.371-.867 1.79s-1.097.629-1.897.629c-.477 0-.899-.077-1.267-.23s-.674-.371-.92-.653a2.84 2.84 0 0 1-.557-1.01 4.22 4.22 0 0 1-.187-1.288 4.6 4.6 0 0 1 .181-1.313c.121-.407.305-.762.551-1.064a2.58 2.58 0 0 1 .927-.714c.372-.173.804-.26 1.297-.26a3.79 3.79 0 0 1 .999.127c.311.085.586.215.824.392s.434.401.588.671.251.591.291.961h-1.066c-.08-.394-.25-.701-.509-.918zm7.194 5.167l-.003-.993h-.021c-.219.388-.497.672-.837.853s-.74.272-1.202.272c-.412 0-.756-.054-1.031-.163s-.497-.264-.667-.466-.289-.442-.358-.72a3.85 3.85 0 0 1-.103-.926v-4.115h1.034v4.234c0 .388.113.694.339.919s.537.339.933.339c.315 0 .587-.048.818-.145s.422-.234.575-.411a1.77 1.77 0 0 0 .345-.623 2.52 2.52 0 0 0 .116-.78v-3.532h1.034v6.257z"/><use xlink:href="#D" x="150.606" y="17.222"/><path d="M170.838 178.417c-.469.356-1.06.533-1.772.533-.501 0-.936-.081-1.304-.242s-.678-.387-.928-.678-.439-.637-.564-1.04-.196-.843-.213-1.318c0-.476.073-.912.219-1.307a3.12 3.12 0 0 1 .612-1.028 2.79 2.79 0 0 1 .934-.678c.36-.161.754-.242 1.183-.242.558 0 1.021.115 1.388.345s.663.521.885.876a3.47 3.47 0 0 1 .461 1.16c.085.419.119.818.103 1.197h-4.695a2.46 2.46 0 0 0 .097.78 1.77 1.77 0 0 0 .352.654c.162.19.368.341.62.453s.546.169.887.169c.437 0 .795-.1 1.074-.303s.464-.508.553-.919h1.019c-.138.701-.441 1.23-.91 1.586zm-.249-4.017c-.093-.218-.219-.405-.376-.562a1.79 1.79 0 0 0-.558-.375c-.214-.093-.452-.139-.71-.139-.267 0-.508.046-.723.139s-.398.22-.553.381a1.82 1.82 0 0 0-.365.562c-.089.214-.141.441-.158.683h3.607a2.12 2.12 0 0 0-.165-.689zm2.87 4.073c.242-.908.364-1.855.364-2.84 0-1.017-.123-1.984-.37-2.9s-.652-1.839-1.218-2.766h.776l.787 1.35a10.7 10.7 0 0 1 .599 1.368c.165.464.292.938.381 1.422a8.43 8.43 0 0 1 .133 1.525c0 .953-.159 1.911-.478 2.876a9.24 9.24 0 0 1-1.423 2.694h-.776c.573-.912.981-1.822 1.223-2.73zm6.978-4.996a2.07 2.07 0 0 1 .679-.642 2.98 2.98 0 0 1 .927-.345 5.29 5.29 0 0 1 1.037-.103 7.03 7.03 0 0 1 .958.067 2.94 2.94 0 0 1 .885.261 1.75 1.75 0 0 1 .655.539c.17.23.255.535.255.914v3.258a6.6 6.6 0 0 0 .048.811c.032.258.089.452.17.581l-1.746-.001a2.43 2.43 0 0 1-.079-.296c-.02-.101-.034-.203-.042-.307a2.25 2.25 0 0 1-.971.592 3.9 3.9 0 0 1-1.14.169c-.299 0-.578-.036-.837-.109a1.92 1.92 0 0 1-.679-.339 1.56 1.56 0 0 1-.455-.581 1.95 1.95 0 0 1-.164-.835c0-.356.062-.648.187-.878a1.56 1.56 0 0 1 .486-.551c.199-.137.425-.241.679-.309a7.31 7.31 0 0 1 .771-.163l.765-.097c.251-.024.473-.06.667-.109a1.18 1.18 0 0 0 .462-.212c.114-.093.166-.228.158-.406a.91.91 0 0 0-.091-.442.66.66 0 0 0-.242-.254.94.94 0 0 0-.352-.121 2.83 2.83 0 0 0-.431-.031c-.34 0-.607.073-.801.218s-.307.388-.339.727h-1.72c.023-.404.125-.739.303-1.006zm3.401 2.432a2.71 2.71 0 0 1-.353.091l-.394.061-.413.06a3.27 3.27 0 0 0-.383.097c-.125.04-.235.095-.327.163a.76.76 0 0 0-.225.26.83.83 0 0 0-.085.399c0 .154.028.283.085.387a.65.65 0 0 0 .231.248c.098.06.21.103.34.127a2.13 2.13 0 0 0 .401.036c.34 0 .604-.056.79-.169s.324-.248.413-.405a1.31 1.31 0 0 0 .164-.478l.031-.387v-.641a.78.78 0 0 1-.274.151z"/><use xlink:href="#B" x="32.953"/><path d="M178.138 144.25c-.469.356-1.06.533-1.771.533-.502 0-.936-.081-1.305-.242s-.678-.387-.928-.678-.439-.637-.564-1.04a4.98 4.98 0 0 1-.212-1.318c0-.476.073-.912.218-1.307a3.09 3.09 0 0 1 .613-1.028 2.78 2.78 0 0 1 .934-.678c.36-.161.754-.242 1.182-.242.558 0 1.021.115 1.388.345a2.74 2.74 0 0 1 .885.876 3.45 3.45 0 0 1 .461 1.16 4.99 4.99 0 0 1 .104 1.197h-4.695a2.46 2.46 0 0 0 .096.78 1.77 1.77 0 0 0 .352.654 1.73 1.73 0 0 0 .62.453c.251.113.546.169.887.169.437 0 .795-.1 1.075-.303s.464-.508.553-.919h1.018c-.138.701-.441 1.23-.91 1.586zm-.249-4.017c-.093-.218-.219-.405-.376-.562s-.344-.282-.559-.375a1.77 1.77 0 0 0-.71-.139c-.267 0-.508.046-.723.139s-.398.22-.553.381a1.81 1.81 0 0 0-.364.562 2.11 2.11 0 0 0-.158.683h3.607c-.017-.242-.071-.471-.165-.689zM51.622 156.428c-.259-.218-.606-.326-1.042-.326-.372 0-.683.069-.934.206a1.66 1.66 0 0 0-.6.544c-.149.226-.257.486-.321.78s-.097.599-.097.913a3.45 3.45 0 0 0 .103.846 2.29 2.29 0 0 0 .321.732c.145.214.335.385.57.514a1.71 1.71 0 0 0 .836.194c.509 0 .907-.133 1.194-.398s.463-.64.527-1.123h1.055c-.113.774-.402 1.371-.867 1.79s-1.097.629-1.897.629c-.477 0-.899-.077-1.267-.23s-.674-.371-.921-.653-.431-.619-.557-1.01a4.22 4.22 0 0 1-.187-1.288 4.6 4.6 0 0 1 .181-1.313c.121-.407.305-.762.551-1.064a2.58 2.58 0 0 1 .927-.714c.372-.173.804-.26 1.297-.26a3.79 3.79 0 0 1 .999.127c.311.085.586.215.824.392s.434.401.588.671.251.591.291.961H52.13c-.08-.395-.249-.701-.508-.918z"/><use xlink:href="#G"/><use xlink:href="#H"/><use xlink:href="#F" x="1.169" y="-17.222"/><path d="M46.235 157.866v.969h-3.504v-.969zm105.411-1.438c-.259-.218-.606-.326-1.042-.326-.372 0-.683.069-.934.206a1.66 1.66 0 0 0-.6.544c-.149.226-.257.486-.321.78s-.097.599-.097.913a3.45 3.45 0 0 0 .103.846 2.29 2.29 0 0 0 .321.732c.145.214.335.385.57.514a1.71 1.71 0 0 0 .836.194c.509 0 .907-.133 1.194-.398s.463-.64.527-1.123h1.055c-.113.774-.402 1.371-.867 1.79s-1.097.629-1.897.629c-.477 0-.899-.077-1.267-.23s-.674-.371-.921-.653-.431-.619-.557-1.01a4.22 4.22 0 0 1-.187-1.288 4.6 4.6 0 0 1 .181-1.313c.121-.407.305-.762.551-1.064a2.58 2.58 0 0 1 .927-.714c.372-.173.804-.26 1.297-.26a3.79 3.79 0 0 1 .999.127c.311.085.586.215.824.392s.434.401.588.671.251.591.291.961h-1.067c-.08-.395-.249-.701-.508-.918z"/><use xlink:href="#G" x="100.024"/><use xlink:href="#H" x="100.025"/><use xlink:href="#F" x="101.194" y="-17.222"/><path d="M146.26 157.866v.969h-3.504v-.969z"/></svg>